<?xml version="1.0" encoding="UTF-8"?>
<svg xmlns="http://www.w3.org/2000/svg" id="Laag_1" version="1.1" viewBox="0 0 294 75.6">
  <!-- Generator: Adobe Illustrator 30.2.1, SVG Export Plug-In . SVG Version: 2.1.1 Build 1)  -->
  <defs>
    <style>
      .st0 {
        fill: #1a2e39;
      }

      .st1 {
        fill: #1d1d1b;
      }

      .st2 {
        isolation: isolate;
      }

      .st3 {
        fill: #59666f;
      }

      .st4 {
        fill: #599032;
      }

      .st5 {
        fill: #241f19;
      }
    </style>
  </defs>
  <g class="st2">
    <g class="st2">
      <path class="st3" d="M10.7,61v1.6H-.5v-1.6h11.2ZM6,61v14.5h-1.8v-14.5h1.8Z"/>
      <path class="st3" d="M14.6,60.8v4.1c0,.5,0,.9,0,1.3,0,.4,0,.8-.2,1.1l.2.3v8h-1.8v-14.7h1.8ZM19.1,65c1.8,0,2.8.9,2.8,2.8v7.7h-1.8v-7.2c0-.7-.1-1.2-.3-1.4s-.6-.4-1.1-.4-1.3.1-1.9.4-1.4.7-2.2,1.3v-1.3c.7-.6,1.5-1.1,2.3-1.4.8-.3,1.6-.5,2.3-.5Z"/>
      <path class="st3" d="M29.2,65c1.5,0,2.7.3,3.3.8.7.6,1,1.4,1,2.5,0,.9-.2,1.6-.6,2.1-.4.5-1,.8-1.9.8h-6v-1.4h5.5c.5,0,.8-.2.9-.5.1-.3.2-.7.2-1,0-.7-.2-1.1-.6-1.4s-1-.4-1.9-.4-1.3.1-1.8.3c-.4.2-.7.6-.9,1.1-.2.5-.3,1.3-.3,2.3s.1,1.9.3,2.5.6,1,1,1.2c.5.2,1.1.3,1.9.3s1.1,0,1.8,0c.7,0,1.2-.1,1.8-.2l.2,1.2c-.3.1-.7.2-1.2.3-.5,0-1,.1-1.4.2s-.9,0-1.3,0c-1.2,0-2.1-.2-2.8-.5-.7-.4-1.2-.9-1.6-1.7-.3-.8-.5-1.8-.5-3.1s.2-2.4.5-3.2c.3-.8.8-1.3,1.5-1.7s1.6-.5,2.7-.5Z"/>
      <path class="st3" d="M42.8,60.8v3.8c0,.4,0,.8,0,1.2,0,.4,0,.7-.2,1.1l.2.3v7.9s-1.8,0-1.8,0v-14.2h1.8ZM46.5,65c1.3,0,2.2.4,2.8,1.2.6.8.9,2.2.9,4.1s0,1.7-.2,2.3c-.1.7-.4,1.2-.7,1.7-.3.5-.8.8-1.4,1-.6.2-1.3.3-2.2.3s-.7,0-1.1,0-.8,0-1.2-.1c-.4,0-.8-.1-1.2-.2-.4,0-.8-.2-1.1-.3l1.4-1.2c.4.1.8.2,1.1.3s.7.1,1.1.1c.4,0,.7,0,1,0,.7,0,1.2-.1,1.6-.4s.7-.6.9-1.2c.2-.6.3-1.3.3-2.3s0-1.7-.2-2.2c-.1-.6-.4-.9-.7-1.2-.4-.2-.9-.4-1.5-.4s-1.1.2-1.6.5c-.5.3-1.1.7-1.7,1.2v-1.2c.3-.4.7-.8,1.2-1.1.4-.3.9-.5,1.4-.7.5-.2,1-.2,1.4-.2Z"/>
      <path class="st3" d="M54.4,65.2l.2,2,.2.3v8h-1.8v-10.2h1.4ZM59.4,65l-.2,1.7h-.6c-.6,0-1.2.1-1.8.4-.6.2-1.3.6-2.2,1v-1.1c.6-.6,1.4-1.1,2.1-1.4.8-.3,1.5-.5,2.2-.5h.5Z"/>
      <path class="st3" d="M62.8,60.9c.4,0,.5.2.5.5v1.2c0,.4-.2.5-.5.5h-.8c-.4,0-.5-.2-.5-.5v-1.2c0-.4.2-.5.5-.5h.8ZM63.2,65.2v10.2h-1.8v-10.2h1.8Z"/>
      <path class="st3" d="M71,65c.3,0,.7,0,1,0,.4,0,.8,0,1.2.1s.8.2,1.1.3l-.2,1.2c-.5,0-.9,0-1.5,0-.5,0-.9,0-1.3,0-.8,0-1.5.1-1.9.3-.5.2-.8.6-1,1.2-.2.6-.3,1.3-.3,2.3s.1,1.8.3,2.3c.2.6.6,1,1,1.2.5.2,1.1.3,1.9.3s.5,0,.8,0c.3,0,.7,0,1.1,0s.8,0,1.1-.1l.2,1.2c-.5.2-1.1.3-1.7.4-.6,0-1.2.1-1.8.1-1.2,0-2.1-.2-2.8-.5-.7-.3-1.2-.9-1.5-1.7-.3-.8-.5-1.8-.5-3.2s.2-2.4.5-3.2c.3-.8.8-1.3,1.6-1.7.7-.3,1.7-.5,2.8-.5Z"/>
      <path class="st3" d="M78.7,60.8v6.5c0,.4,0,.8,0,1.2,0,.4,0,.8-.2,1.2,0,.4.1.8.1,1.2,0,.4,0,.8,0,1.1v3.5h-1.8v-14.7h1.8ZM80.4,69v1.3h-2.4v-1.3h2.4ZM85.2,65.2l-3.2,3.8c0,.1-.2.3-.4.4-.1.1-.3.2-.4.3h0c0,.1.2.2.4.4.1.2.3.3.4.5l3.5,4.9h-2.1l-4.1-5.9,3.7-4.4h2.1Z"/>
      <path class="st3" d="M97.5,65.2v1.4h-6.9v-1.3h2c0-.1,4.9-.1,4.9-.1ZM94.2,62.2v10.4c0,.5.1.8.3,1.1s.6.3,1.1.3h1.6l.2,1.4c-.2,0-.5.1-.8.1-.3,0-.6,0-.9,0-.3,0-.5,0-.7,0-.9,0-1.5-.2-2-.7-.4-.5-.7-1.2-.7-2.1v-10.7h1.8Z"/>
      <path class="st3" d="M104,65c1.2,0,2.1.2,2.8.5.7.4,1.2.9,1.5,1.7s.5,1.8.5,3.1-.2,2.3-.5,3.1c-.3.8-.8,1.4-1.5,1.7s-1.6.5-2.8.5-2.1-.2-2.8-.5-1.2-.9-1.5-1.7c-.3-.8-.5-1.8-.5-3.1s.2-2.3.5-3.1c.3-.8.8-1.4,1.5-1.7.7-.3,1.6-.5,2.8-.5ZM104,66.5c-.7,0-1.3.1-1.8.3-.4.2-.7.6-.9,1.2-.2.6-.3,1.3-.3,2.3s0,1.8.3,2.3c.2.6.5,1,.9,1.2.4.2,1,.3,1.8.3s1.3-.1,1.8-.3c.4-.2.7-.6.9-1.2.2-.6.3-1.3.3-2.3s0-1.8-.3-2.3c-.2-.6-.5-1-.9-1.2-.4-.2-1-.3-1.8-.3Z"/>
      <path class="st3" d="M118,60.8v3.8c0,.4,0,.8,0,1.2,0,.4,0,.7-.2,1.1l.2.3v7.9s-1.8,0-1.8,0v-14.2h1.8ZM121.8,65c1.3,0,2.2.4,2.8,1.2.6.8.9,2.2.9,4.1s0,1.7-.2,2.3c-.1.7-.4,1.2-.7,1.7-.3.5-.8.8-1.4,1-.6.2-1.3.3-2.2.3s-.7,0-1.1,0-.8,0-1.2-.1c-.4,0-.8-.1-1.2-.2-.4,0-.8-.2-1.1-.3l1.4-1.2c.4.1.8.2,1.1.3s.7.1,1.1.1c.4,0,.7,0,1,0,.7,0,1.2-.1,1.6-.4s.7-.6.9-1.2c.2-.6.3-1.3.3-2.3s0-1.7-.2-2.2c-.1-.6-.4-.9-.7-1.2-.4-.2-.9-.4-1.5-.4s-1.1.2-1.6.5c-.5.3-1.1.7-1.7,1.2v-1.2c.3-.4.7-.8,1.2-1.1.4-.3.9-.5,1.4-.7.5-.2,1-.2,1.4-.2Z"/>
      <path class="st3" d="M130,65.2v7.2c0,.6.1,1.1.4,1.4.3.3.7.4,1.3.4s1.1-.1,1.7-.4c.6-.3,1.2-.7,2-1.2l.2,1.2c-.8.6-1.6,1.1-2.3,1.4s-1.5.5-2.3.5c-1.9,0-2.8-.9-2.8-2.8v-7.7h1.8ZM136.9,65.2v10.2h-1.4l-.2-1.9-.2-.3v-8h1.8Z"/>
      <path class="st3" d="M141.6,60.9c.4,0,.5.2.5.5v1.2c0,.4-.2.5-.5.5h-.8c-.4,0-.5-.2-.5-.5v-1.2c0-.4.2-.5.5-.5h.8ZM142.1,65.2v10.2h-1.8v-10.2h1.8Z"/>
      <path class="st3" d="M147.2,60.8v11.9c0,.4.1.8.3,1,.2.2.6.3,1,.3h1l.2,1.4c-.1,0-.3.1-.5.1-.2,0-.5,0-.7,0-.2,0-.5,0-.6,0-.8,0-1.4-.2-1.8-.7-.5-.4-.7-1.1-.7-1.9v-12.3h1.8Z"/>
      <path class="st3" d="M155.1,65c.7,0,1.3,0,2,.3.7.2,1.3.4,1.9.8v1.1c-.8-.2-1.3-.3-1.8-.5s-1-.2-1.6-.2-1.1.1-1.4.3c-.4.2-.6.6-.8,1.1s-.3,1.3-.3,2.3,0,1.8.2,2.4c.2.6.4,1,.8,1.2s.8.3,1.3.3.8,0,1.1-.2c.3-.1.7-.3,1-.5s.8-.5,1.3-.9l.2,1.3c-.6.5-1.2,1-1.9,1.3-.7.4-1.5.5-2.3.5-1.3,0-2.2-.5-2.8-1.4-.6-.9-.8-2.3-.8-4s.1-2.4.4-3.2c.3-.8.7-1.3,1.3-1.7.6-.3,1.3-.5,2.2-.5ZM160.4,60.8v14.7h-1.4l-.2-1.8h-.2v-7.5c0-.4,0-.8,0-1.1,0-.4,0-.7,0-1.2v-3.2h1.8Z"/>
      <path class="st3" d="M183.1,65.2l-3,9.7c0,.2-.1.3-.3.4-.1,0-.3.1-.4.1h-1.6c-.2,0-.3,0-.5-.2-.1-.1-.2-.2-.2-.4l-1.7-7c0-.3-.1-.5-.2-.8,0-.3-.1-.5-.2-.8h-.3c0,.3-.1.6-.2.8,0,.3-.1.5-.2.8l-1.7,7c0,.2-.1.3-.3.4-.1.1-.3.2-.5.2h-1.6c-.2,0-.3,0-.4-.1-.1,0-.2-.2-.3-.4l-3-9.7h1.8l2.1,7.5c0,.3.1.5.2.8,0,.3.1.5.1.8h.3c0-.3.1-.5.2-.8,0-.3.1-.5.2-.8l1.7-7c0-.2.1-.3.2-.4.1-.1.3-.2.5-.2h1.6c.2,0,.3,0,.4.2.1.1.2.2.2.4l1.7,7c0,.3.1.5.2.8,0,.3.1.5.2.8h.3c0-.3.1-.5.2-.8,0-.2.1-.5.2-.8l2.1-7.5h1.8Z"/>
      <path class="st3" d="M186.6,60.9c.4,0,.5.2.5.5v1.2c0,.4-.2.5-.5.5h-.8c-.4,0-.5-.2-.5-.5v-1.2c0-.4.2-.5.5-.5h.8ZM187.1,65.2v10.2h-1.8v-10.2h1.8Z"/>
      <path class="st3" d="M196.3,65.2v1.4h-6.9v-1.3h2c0-.1,4.9-.1,4.9-.1ZM193,62.2v10.4c0,.5.1.8.3,1.1s.6.3,1.1.3h1.6l.2,1.4c-.2,0-.5.1-.8.1-.3,0-.6,0-.9,0-.3,0-.5,0-.7,0-.9,0-1.5-.2-2-.7-.4-.5-.7-1.2-.7-2.1v-10.7h1.8Z"/>
      <path class="st3" d="M200.2,60.8v4.1c0,.5,0,.9,0,1.3,0,.4,0,.8-.2,1.1l.2.3v8h-1.8v-14.7h1.8ZM204.7,65c1.8,0,2.8.9,2.8,2.8v7.7h-1.8v-7.2c0-.7-.1-1.2-.3-1.4s-.6-.4-1.1-.4-1.3.1-1.9.4-1.4.7-2.2,1.3v-1.3c.7-.6,1.5-1.1,2.3-1.4.8-.3,1.6-.5,2.3-.5Z"/>
    </g>
  </g>
  <g>
    <g>
      <path class="st5" d="M33.6,50.4c-8.9.8-16.3,1.2-22.2,1.2s-6.8-.9-8.6-2.8c-1.8-1.8-2.8-4.7-2.8-8.6v-19.2c0-4.2.9-7.2,2.8-9.2,1.9-1.9,4.9-2.8,9.2-2.8h21.6v8.4H14.4c-2.4,0-3.6,1.2-3.6,3.6v19.2c0,.9.3,1.7.8,2.2.5.5,1.2.8,2.1.8s1.8,0,2.8,0c1,0,2,0,3.1,0,1.1,0,2.2,0,3.3-.1,1.1,0,2.5-.1,4.3-.2,1.7-.1,3.9-.3,6.5-.4v8.1h0Z"/>
      <path class="st5" d="M70.2,42c0,3-.8,5.3-2.6,7-1.7,1.7-4,2.5-7,2.5h-13.8c-3,0-5.3-.8-7-2.5s-2.5-4-2.5-7v-12.8c0-3,.8-5.4,2.5-7,1.7-1.7,4-2.5,7-2.5h13.8c3,0,5.4.9,7,2.5,1.7,1.7,2.6,4,2.6,7v12.8ZM59.7,30.1c0-1.6-.8-2.4-2.4-2.4h-7.2c-1.6,0-2.4.8-2.4,2.4v11c0,1.6.8,2.4,2.4,2.4h7.2c1.6,0,2.4-.8,2.4-2.4v-11Z"/>
      <path class="st5" d="M86.1,20.8c3.9-.8,7.3-1.2,10.2-1.2h2.1c2.7,0,4.9.8,6.5,2.5,1.6,1.6,2.5,3.8,2.5,6.5v12.8c0,3-.8,5.3-2.6,7-1.7,1.7-4.1,2.5-7.1,2.5h-22.2V9h10.5v11.8h0ZM96.9,29.8c0-.6-.2-1.1-.6-1.5s-.9-.6-1.5-.6h-1.5c-1.7,0-3.1,0-4.3.2s-2.2.3-2.8.4v14.6h8.4c1.6,0,2.4-.8,2.4-2.4,0,0,0-10.7,0-10.7Z"/>
      <path class="st5" d="M123.3,20.8c3.9-.8,7.3-1.2,10.2-1.2h2.1c2.7,0,4.9.8,6.5,2.5,1.6,1.6,2.5,3.8,2.5,6.5v12.8c0,3-.9,5.3-2.6,7s-4.1,2.5-7.1,2.5h-22.2V9h10.5v11.8h0ZM134.1,29.8c0-.6-.2-1.1-.6-1.5-.4-.4-.9-.6-1.5-.6h-1.5c-1.7,0-3.1,0-4.3.2s-2.2.3-2.8.4v14.6h8.4c1.6,0,2.4-.8,2.4-2.4v-10.7h0Z"/>
      <path class="st5" d="M166.2,51c-2.7.4-5.2.6-7.6.6s-4.4-.8-6.1-2.5-2.5-3.8-2.5-6.5V9h10.5v32.1c0,.6.2,1.1.6,1.5.4.4.9.6,1.5.6h3.6v7.8h0Z"/>
      <polygon class="st5" points="183.6 20.4 183.6 51 173.1 51 173.1 28.5 168.6 28.5 168.6 20.4 183.6 20.4"/>
      <rect class="st5" x="173.1" y="8.4" width="10.5" height="8.4"/>
      <path class="st5" d="M211.8,51c-3.9.4-7.7.6-11.4.6s-4.9-.8-6.5-2.5-2.5-3.8-2.5-6.5v-14.1h-3.6v-8.1h3.6l1.2-8.4h9.3v8.4h7.5v8.1h-7.5v12.6c0,.6.2,1.1.6,1.5.4.4.9.6,1.5.6h7.8v7.8h0Z"/>
    </g>
    <g>
      <path class="st4" d="M235.1,23.9v-8.9l27.9-8v8.9l10-2.9V0h-39.4c-4.7,0-8.5,3.8-8.5,8.5v18.2l10-2.9h0Z"/>
      <path class="st0" d="M263,24.7v16.7h-27.9v-8.7l-10,2.9v7.5c0,4.6,3.7,8.3,8.4,8.3h31.2c4.6,0,8.3-3.7,8.3-8.3v-21.3l-10,2.9h0Z"/>
    </g>
  </g>
  <path class="st1" d="M279.4,4c0-1.3.3-2.3,1-2.9s1.7-1,2.9-1h6.7c1.3,0,2.3.3,2.9,1,.7.7,1,1.7,1,2.9v5.1c0,1.3-.3,2.3-1,2.9-.7.7-1.7,1-2.9,1h-6.7c-1.3,0-2.3-.3-2.9-1s-1-1.7-1-2.9v-5.1ZM291.8,3.2c0-.4-.1-.7-.4-1-.3-.3-.6-.4-1-.4h-7.3c-.4,0-.7.1-1,.4s-.4.6-.4,1v6.7c0,.4.1.7.4,1,.3.3.6.4,1,.4h7.3c.4,0,.7-.1,1-.4.3-.3.4-.6.4-1V3.2ZM286.7,8.1h-.7v1.8h-2.5V3.2h4.6c.7,0,1.3.2,1.7.6s.6.9.6,1.7v.2c0,.6-.1,1.1-.4,1.4s-.5.6-.8.7l1.2,2.2h-2.6l-1-1.8h0ZM287.2,6.4c.4,0,.6-.2.6-.6v-.4c0-.4-.2-.6-.6-.6h-1.2v1.6h1.2Z"/>
</svg>
